<?xml version="1.0" encoding="UTF-8" standalone="no"?>
<svg width="35px" height="35px" viewBox="0 0 35 35" version="1.1" xmlns="http://www.w3.org/2000/svg" xmlns:xlink="http://www.w3.org/1999/xlink" xmlns:sketch="http://www.bohemiancoding.com/sketch/ns">
    <!-- Generator: Sketch 3.3.2 (12043) - http://www.bohemiancoding.com/sketch -->
    <title>icon</title>
    <desc>Created with Sketch.</desc>
    <defs></defs>
    <g id="Mobile-UI" stroke="none" stroke-width="1" fill="none" fill-rule="evenodd" sketch:type="MSPage">
        <g id="icon" sketch:type="MSArtboardGroup" fill="#5469A4" opacity="0.7">
            <path d="M30.1290323,23.2272727 L12.3548387,23.2272727 C11.3220645,23.2272727 10.483871,24.0825455 10.483871,25.1363636 C10.483871,26.1901818 11.3220645,27.0454545 12.3548387,27.0454545 L30.1290323,27.0454545 C31.1618065,27.0454545 32,26.1901818 32,25.1363636 C32,24.0825455 31.1618065,23.2272727 30.1290323,23.2272727 L30.1290323,23.2272727 Z M30.1290323,15.5909091 L12.3548387,15.5909091 C11.3220645,15.5909091 10.483871,16.4461818 10.483871,17.5 C10.483871,18.5538182 11.3220645,19.4090909 12.3548387,19.4090909 L30.1290323,19.4090909 C31.1618065,19.4090909 32,18.5538182 32,17.5 C32,16.4461818 31.1618065,15.5909091 30.1290323,15.5909091 L30.1290323,15.5909091 Z M12.3548387,11.7727273 L30.1290323,11.7727273 C31.1618065,11.7727273 32,10.9174545 32,9.86363636 C32,8.80981818 31.1618065,7.95454545 30.1290323,7.95454545 L12.3548387,7.95454545 C11.3220645,7.95454545 10.483871,8.80981818 10.483871,9.86363636 C10.483871,10.9174545 11.3220645,11.7727273 12.3548387,11.7727273 L12.3548387,11.7727273 Z M5.80645161,22.2727273 C4.25635484,22.2727273 3,23.5546818 3,25.1363636 C3,26.7180455 4.25635484,28 5.80645161,28 C7.35654839,28 8.61290323,26.7180455 8.61290323,25.1363636 C8.61290323,23.5546818 7.35654839,22.2727273 5.80645161,22.2727273 L5.80645161,22.2727273 Z M5.80645161,14.6363636 C4.25635484,14.6363636 3,15.9183182 3,17.5 C3,19.0816818 4.25635484,20.3636364 5.80645161,20.3636364 C7.35654839,20.3636364 8.61290323,19.0816818 8.61290323,17.5 C8.61290323,15.9183182 7.35654839,14.6363636 5.80645161,14.6363636 L5.80645161,14.6363636 Z M5.80645161,7 C4.25635484,7 3,8.28195455 3,9.86363636 C3,11.4453182 4.25635484,12.7272727 5.80645161,12.7272727 C7.35654839,12.7272727 8.61290323,11.4453182 8.61290323,9.86363636 C8.61290323,8.28195455 7.35654839,7 5.80645161,7 L5.80645161,7 Z" id="Fill-120" sketch:type="MSShapeGroup"></path>
        </g>
    </g>
</svg>