<?xml version="1.0" encoding="UTF-8" standalone="no"?>
<svg width="200px" height="50px" viewBox="0 0 200 50" version="1.1" xmlns="http://www.w3.org/2000/svg" xmlns:xlink="http://www.w3.org/1999/xlink" xmlns:sketch="http://www.bohemiancoding.com/sketch/ns">
    <!-- Generator: Sketch 3.3.2 (12043) - http://www.bohemiancoding.com/sketch -->
    <title>icon</title>
    <desc>Created with Sketch.</desc>
    <defs></defs>
    <g id="Mobile-UI" stroke="none" stroke-width="1" fill="none" fill-rule="evenodd" sketch:type="MSPage">
        <g id="icon" sketch:type="MSArtboardGroup" fill="#1D6BBF">
            <g id="Shape-+-LOGO-Copy" sketch:type="MSLayerGroup" transform="translate(7.000000, 3.000000)">
                <path d="M29.5096154,0 C20.9249992,0 13.8868778,7.0174826 13.8868778,15.5769231 C13.8868778,16.4753412 14.0338357,17.2700862 14.1581059,18.0649038 L0.488210549,31.640625 L0,32.1814904 L0,32.8846154 L0,43.2692308 L0,45 L1.73585973,45 L10.4151584,45 L12.1510181,45 L12.1510181,43.2692308 L12.1510181,39.8076923 L15.6227376,39.8076923 L17.3585973,39.8076923 L17.3585973,38.0769231 L17.3585973,34.6153846 L20.8303167,34.6153846 L22.5661765,34.6153846 L22.5661765,32.8846154 L22.5661765,29.4771635 C24.6164837,30.4764196 27.0017025,31.1538462 29.5096154,31.1538462 C38.0942316,31.1538462 45.1323529,24.1363644 45.1323529,15.5769231 C45.1323529,7.0174826 38.0942316,0 29.5096154,0 L29.5096154,0 Z M29.5096154,3.46153846 C36.2005648,3.46153846 41.6606335,8.90559433 41.6606335,15.5769231 C41.6606335,22.248251 36.2005648,27.6923077 29.5096154,27.6923077 C27.4100514,27.6923077 25.2474514,27.0755758 23.5968432,26.1778846 L23.1628783,25.9615385 L22.7289133,25.9615385 L20.8303167,25.9615385 L19.094457,25.9615385 L19.094457,27.6923077 L19.094457,31.1538462 L15.6227376,31.1538462 L13.8868778,31.1538462 L13.8868778,32.8846154 L13.8868778,36.3461538 L10.4151584,36.3461538 L8.67929864,36.3461538 L8.67929864,38.0769231 L8.67929864,41.5384615 L3.47171946,41.5384615 L3.47171946,33.6418269 L17.1958604,19.9038462 L17.8468078,19.3088942 L17.684071,18.3894231 C17.510485,17.3509615 17.3585973,16.4230771 17.3585973,15.5769231 C17.3585973,8.90559433 22.8186659,3.46153846 29.5096154,3.46153846 L29.5096154,3.46153846 Z M32.9813348,8.65384615 C31.063958,8.65384615 29.5096154,10.2036297 29.5096154,12.1153846 C29.5096154,14.0271387 31.063958,15.5769231 32.9813348,15.5769231 C34.8987117,15.5769231 36.4530543,14.0271387 36.4530543,12.1153846 C36.4530543,10.2036297 34.8987117,8.65384615 32.9813348,8.65384615 L32.9813348,8.65384615 Z" id="Shape" sketch:type="MSShapeGroup"></path>
                <text id="LOGO-Copy" sketch:type="MSTextLayer" font-family="Museo Sans Cyrl" font-size="30" font-weight="bold" letter-spacing="0.200000003">
                    <tspan x="51.9705882" y="28.6818182">GETFLA</tspan>
                    <tspan x="165.160588" y="28.6818182">T</tspan>
                </text>
            </g>
        </g>
    </g>
</svg>