<?xml version="1.0" encoding="UTF-8" standalone="no"?>
<svg width="50px" height="50px" viewBox="0 0 50 50" version="1.1" xmlns="http://www.w3.org/2000/svg" xmlns:xlink="http://www.w3.org/1999/xlink" xmlns:sketch="http://www.bohemiancoding.com/sketch/ns">
    <!-- Generator: Sketch 3.3.2 (12043) - http://www.bohemiancoding.com/sketch -->
    <title>icon</title>
    <desc>Created with Sketch.</desc>
    <defs></defs>
    <g id="Mobile-UI" stroke="none" stroke-width="1" fill="none" fill-rule="evenodd" sketch:type="MSPage">
        <g id="icon" sketch:type="MSArtboardGroup" fill="#52634E" opacity="0.245228545">
            <path d="M34.2647059,14.5 L15.7352941,14.5 C15.0033824,14.5 14.4117647,13.9133125 14.4117647,13.1875 C14.4117647,12.463 15.0033824,11.875 15.7352941,11.875 L34.2647059,11.875 C34.9966176,11.875 35.5882353,12.463 35.5882353,13.1875 C35.5882353,13.9133125 34.9966176,14.5 34.2647059,14.5 L34.2647059,14.5 Z M34.2647059,22.346125 L15.7352941,22.346125 C15.0033824,22.346125 14.4117647,21.7568125 14.4117647,21.033625 C14.4117647,20.3078125 15.0033824,19.721125 15.7352941,19.721125 L34.2647059,19.721125 C34.9966176,19.721125 35.5882353,20.3078125 35.5882353,21.033625 C35.5882353,21.7568125 34.9966176,22.346125 34.2647059,22.346125 L34.2647059,22.346125 Z M34.2647059,30.25 L15.7352941,30.25 C15.0033824,30.25 14.4117647,29.6633125 14.4117647,28.9375 C14.4117647,28.2116875 15.0033824,27.625 15.7352941,27.625 L34.2647059,27.625 C34.9966176,27.625 35.5882353,28.2116875 35.5882353,28.9375 C35.5882353,29.6633125 34.9966176,30.25 34.2647059,30.25 L34.2647059,30.25 Z M38.2352941,4 L11.7647059,4 C8.84102941,4 6.47058824,6.3506875 6.47058824,9.25 L6.47058824,46 L8.94161765,46 L14.4117647,42.0625 L19.7058824,46 L25,42.0625 L30.2941176,46 L35.5882353,42.0625 L41.0597059,46 L43.5294118,46 L43.5294118,9.25 C43.5294118,6.3506875 41.1589706,4 38.2352941,4 L38.2352941,4 Z" id="Fill-86-Copy" sketch:type="MSShapeGroup"></path>
        </g>
    </g>
</svg>