<?xml version="1.0" encoding="UTF-8" standalone="no"?>
<svg width="50px" height="50px" viewBox="0 0 50 50" version="1.1" xmlns="http://www.w3.org/2000/svg" xmlns:xlink="http://www.w3.org/1999/xlink" xmlns:sketch="http://www.bohemiancoding.com/sketch/ns">
    <!-- Generator: Sketch 3.3.2 (12043) - http://www.bohemiancoding.com/sketch -->
    <title>icon</title>
    <desc>Created with Sketch.</desc>
    <defs></defs>
    <g id="Mobile-UI" stroke="none" stroke-width="1" fill="none" fill-rule="evenodd" sketch:type="MSPage">
        <g id="icon" sketch:type="MSArtboardGroup">
            <g id="filters-icon" sketch:type="MSLayerGroup" transform="translate(25.500000, 25.000000) rotate(-270.000000) translate(-25.500000, -25.000000) translate(8.000000, 6.000000)">
                <g id="Main" sketch:type="MSShapeGroup">
                    <g id="1">
                        <path d="M4.30664062,21.7177259 L4.30664062,1.73152471 C4.30664062,0.776283961 5.0779001,0 6.02929688,0 C6.98732661,0 7.75195312,0.775230017 7.75195312,1.73152471 L7.75195312,21.7177259 C7.20612138,21.5619249 6.62789633,21.4782609 6.02929688,21.4782609 C5.43069742,21.4782609 4.85247237,21.5619249 4.30664062,21.7177259 Z M4.30664062,32.8040133 L4.30664062,36.2684753 C4.30664062,37.22477 5.07126714,38 6.02929688,38 C6.98069365,38 7.75195312,37.223716 7.75195312,36.2684753 L7.75195312,32.8040133 C7.20612138,32.9598142 6.62789633,33.0434783 6.02929688,33.0434783 C5.43069742,33.0434783 4.85247237,32.9598142 4.30664062,32.8040133 Z" id="Rectangle-137" fill="#FFFFFF"></path>
                        <ellipse id="Oval-94" stroke="#FFFFFF" cx="6.02929688" cy="27.2608696" rx="3.4453125" ry="3.30434783"></ellipse>
                    </g>
                    <g id="2" transform="translate(11.197266, 0.000000)">
                        <path d="M4.30664062,7.6742476 L4.30664062,1.73152471 C4.30664062,0.776283961 5.0779001,0 6.02929688,0 C6.98732661,0 7.75195312,0.775230017 7.75195312,1.73152471 L7.75195312,7.6742476 C7.20612138,7.51844666 6.62789633,7.43478261 6.02929688,7.43478261 C5.43069742,7.43478261 4.85247237,7.51844666 4.30664062,7.6742476 Z M4.30664062,18.760535 L4.30664062,36.2684753 C4.30664062,37.22477 5.07126714,38 6.02929688,38 C6.98069365,38 7.75195312,37.223716 7.75195312,36.2684753 L7.75195312,18.760535 C7.20612138,18.9163359 6.62789633,19 6.02929688,19 C5.43069742,19 4.85247237,18.9163359 4.30664062,18.760535 Z" id="Rectangle-137" fill="#FFFFFF"></path>
                        <ellipse id="Oval-94" stroke="#FFFFFF" cx="6.02929688" cy="13.2173913" rx="3.4453125" ry="3.30434783"></ellipse>
                    </g>
                    <g id="3" transform="translate(22.394531, 0.000000)">
                        <path d="M4.30664062,13.4568563 L4.30664062,1.73152471 C4.30664062,0.776283961 5.0779001,0 6.02929688,0 C6.98732661,0 7.75195312,0.775230017 7.75195312,1.73152471 L7.75195312,13.4568563 C7.20612138,13.3010554 6.62789633,13.2173913 6.02929688,13.2173913 C5.43069742,13.2173913 4.85247237,13.3010554 4.30664062,13.4568563 Z M4.30664062,24.5431437 L4.30664062,36.2684753 C4.30664062,37.22477 5.07126714,38 6.02929688,38 C6.98069365,38 7.75195312,37.223716 7.75195312,36.2684753 L7.75195312,24.5431437 C7.20612138,24.6989446 6.62789633,24.7826087 6.02929688,24.7826087 C5.43069742,24.7826087 4.85247237,24.6989446 4.30664062,24.5431437 Z" id="Rectangle-137" fill="#FFFFFF"></path>
                        <ellipse id="Oval-94" stroke="#FFFFFF" cx="6.02929688" cy="19" rx="3.4453125" ry="3.30434783"></ellipse>
                    </g>
                </g>
            </g>
        </g>
    </g>
</svg>