<?xml version="1.0" encoding="UTF-8" standalone="no"?>
<svg width="155px" height="50px" viewBox="0 0 155 50" version="1.1" xmlns="http://www.w3.org/2000/svg" xmlns:xlink="http://www.w3.org/1999/xlink" xmlns:sketch="http://www.bohemiancoding.com/sketch/ns">
    <!-- Generator: Sketch 3.3.2 (12043) - http://www.bohemiancoding.com/sketch -->
    <title>icon</title>
    <desc>Created with Sketch.</desc>
    <defs></defs>
    <g id="Mobile-UI" stroke="none" stroke-width="1" fill="none" fill-rule="evenodd" sketch:type="MSPage">
        <g id="icon" sketch:type="MSArtboardGroup">
            <g id="key=logo-copy-2" sketch:type="MSLayerGroup" transform="translate(2.000000, -1.000000)">
                <g id="key-icon" transform="translate(75.465796, 26.566652) rotate(6.000000) translate(-75.465796, -26.566652) translate(57.465796, 2.566652)" sketch:type="MSShapeGroup">
                    <ellipse id="Oval-10" fill="#1D6BBF" cx="11.6740426" cy="35.8605739" rx="11.6740426" ry="11.4497307"></ellipse>
                    <ellipse id="Oval-10-Copy" fill="#149EF0" cx="11.6740426" cy="35.8605739" rx="5.90104045" ry="5.7876544"></ellipse>
                    <path d="M13.8931474,31.4563842 L20.8927597,31.4563842 L20.8927597,20.8569714 L29.6122766,20.8569714 L29.6122766,14.8573038 L20.8927597,14.8573038 L20.8927597,8.85763624 L31.4121769,8.85763624 L31.4121769,2.85796863 L13.8931474,2.85796863 L13.8931474,31.4563842 Z" id="LOGO-Copy-6" fill="#1D6BBF" transform="translate(22.652662, 17.157176) rotate(18.000000) translate(-22.652662, -17.157176) "></path>
                </g>
                <path d="M0.112704225,23.8063064 C0.112704225,30.8434088 5.16498287,34.9634218 10.6683578,34.9634218 C12.7734739,34.9634218 15.0289555,34.2416677 16.3220982,33.0988904 L16.3822444,33.0988904 C16.3822444,33.0988904 16.3521713,33.5499867 16.3521713,34.001083 L16.3521713,34.6025447 L20.742842,34.6025447 L20.742842,22.4530175 L13.0441317,22.4530175 L13.0441317,26.9339075 L16.0815135,26.9339075 L16.0815135,28.5879273 C14.8485169,29.5502661 13.2847164,30.1517278 11.7209159,30.1517278 C8.3828032,30.1517278 5.555933,27.7158078 5.555933,23.6258679 C5.555933,20.4381207 7.39039132,17.5511043 11.9013544,17.5511043 C13.7358127,17.5511043 15.901075,18.4232238 17.1340716,19.535928 L19.6602109,15.5963536 C17.3746563,13.5814568 14.3072014,12.7394103 11.3901119,12.7394103 C4.83417891,12.7394103 0.112704225,17.5511043 0.112704225,23.8063064 L0.112704225,23.8063064 Z M24.5019779,34.6025447 L38.3957442,34.6025447 L38.3957442,30.0915816 L29.7647682,30.0915816 L29.7647682,26.0317149 L36.3207012,26.0317149 L36.3207012,21.5207518 L29.7647682,21.5207518 L29.7647682,17.6112505 L37.974721,17.6112505 L37.974721,13.1002874 L24.5019779,13.1002874 L24.5019779,34.6025447 Z M46.3951854,34.6025447 L51.6579756,34.6025447 L51.6579756,17.6112505 L58.1838356,17.6112505 L58.1838356,13.1002874 L39.8693255,13.1002874 L39.8693255,17.6112505 L46.3951854,17.6112505 L46.3951854,34.6025447 Z" id="LOGO-Copy-8" fill="#1D6BBF" sketch:type="MSShapeGroup"></path>
                <path d="M99.0032293,34.4347826 L113.047361,34.4347826 L113.047361,29.9238195 L104.26602,29.9238195 L104.26602,12.9325253 L99.0032293,12.9325253 L99.0032293,34.4347826 Z M113.257873,34.4347826 L118.671028,34.4347826 L119.964171,29.9238195 L126.670469,29.9238195 L127.993685,34.4347826 L133.406841,34.4347826 L126.099081,12.9325253 L120.565633,12.9325253 L113.257873,34.4347826 Z M121.197168,25.7135873 L122.430164,21.5334282 C122.821114,20.1801393 123.302284,17.8344385 123.302284,17.8344385 L123.36243,17.8344385 C123.36243,17.8344385 123.843599,20.1801393 124.234549,21.5334282 L125.437473,25.7135873 L121.197168,25.7135873 Z M140.203359,34.4347826 L145.466149,34.4347826 L145.466149,17.4434884 L151.992009,17.4434884 L151.992009,12.9325253 L133.677499,12.9325253 L133.677499,17.4434884 L140.203359,17.4434884 L140.203359,34.4347826 Z" id="LOGO-Copy-7" fill="#1D6BBF" sketch:type="MSShapeGroup"></path>
            </g>
        </g>
    </g>
</svg>