<?xml version="1.0" encoding="UTF-8" standalone="no"?>
<svg width="200px" height="50px" viewBox="0 0 200 50" version="1.1" xmlns="http://www.w3.org/2000/svg" xmlns:xlink="http://www.w3.org/1999/xlink" xmlns:sketch="http://www.bohemiancoding.com/sketch/ns">
    <!-- Generator: Sketch 3.3.2 (12043) - http://www.bohemiancoding.com/sketch -->
    <title>icon</title>
    <desc>Created with Sketch.</desc>
    <defs></defs>
    <g id="Mobile-UI" stroke="none" stroke-width="1" fill="none" fill-rule="evenodd" sketch:type="MSPage">
        <g id="icon" sketch:type="MSArtboardGroup" fill="#1D6BBF">
            <g id="Shape-+-LOGO-Copy" sketch:type="MSLayerGroup" transform="translate(7.000000, 3.000000)">
                <path d="M29.5096154,0 C20.9249992,0 13.8868778,7.0174826 13.8868778,15.5769231 C13.8868778,16.4753412 14.0338357,17.2700862 14.1581059,18.0649038 L0.488210549,31.640625 L0,32.1814904 L0,32.8846154 L0,43.2692308 L0,45 L1.73585973,45 L10.4151584,45 L12.1510181,45 L12.1510181,43.2692308 L12.1510181,39.8076923 L15.6227376,39.8076923 L17.3585973,39.8076923 L17.3585973,38.0769231 L17.3585973,34.6153846 L20.8303167,34.6153846 L22.5661765,34.6153846 L22.5661765,32.8846154 L22.5661765,29.4771635 C24.6164837,30.4764196 27.0017025,31.1538462 29.5096154,31.1538462 C38.0942316,31.1538462 45.1323529,24.1363644 45.1323529,15.5769231 C45.1323529,7.0174826 38.0942316,0 29.5096154,0 L29.5096154,0 Z M29.5096154,3.46153846 C36.2005648,3.46153846 41.6606335,8.90559433 41.6606335,15.5769231 C41.6606335,22.248251 36.2005648,27.6923077 29.5096154,27.6923077 C27.4100514,27.6923077 25.2474514,27.0755758 23.5968432,26.1778846 L23.1628783,25.9615385 L22.7289133,25.9615385 L20.8303167,25.9615385 L19.094457,25.9615385 L19.094457,27.6923077 L19.094457,31.1538462 L15.6227376,31.1538462 L13.8868778,31.1538462 L13.8868778,32.8846154 L13.8868778,36.3461538 L10.4151584,36.3461538 L8.67929864,36.3461538 L8.67929864,38.0769231 L8.67929864,41.5384615 L3.47171946,41.5384615 L3.47171946,33.6418269 L17.1958604,19.9038462 L17.8468078,19.3088942 L17.684071,18.3894231 C17.510485,17.3509615 17.3585973,16.4230771 17.3585973,15.5769231 C17.3585973,8.90559433 22.8186659,3.46153846 29.5096154,3.46153846 L29.5096154,3.46153846 Z M32.9813348,8.65384615 C31.063958,8.65384615 29.5096154,10.2036297 29.5096154,12.1153846 C29.5096154,14.0271387 31.063958,15.5769231 32.9813348,15.5769231 C34.8987117,15.5769231 36.4530543,14.0271387 36.4530543,12.1153846 C36.4530543,10.2036297 34.8987117,8.65384615 32.9813348,8.65384615 L32.9813348,8.65384615 Z" id="Shape" sketch:type="MSShapeGroup"></path>
                <path d="M53.0805882,17.9118182 C53.0805882,24.9318182 58.1205882,29.0418182 63.6105882,29.0418182 C65.7105882,29.0418182 67.9605882,28.3218182 69.2505882,27.1818182 L69.3105882,27.1818182 C69.3105882,27.1818182 69.2805882,27.6318182 69.2805882,28.0818182 L69.2805882,28.6818182 L73.6605882,28.6818182 L73.6605882,16.5618182 L65.9805882,16.5618182 L65.9805882,21.0318182 L69.0105882,21.0318182 L69.0105882,22.6818182 C67.7805882,23.6418182 66.2205882,24.2418182 64.6605882,24.2418182 C61.3305882,24.2418182 58.5105882,21.8118182 58.5105882,17.7318182 C58.5105882,14.5518182 60.3405882,11.6718182 64.8405882,11.6718182 C66.6705882,11.6718182 68.8305882,12.5418182 70.0605882,13.6518182 L72.5805882,9.72181818 C70.3005882,7.71181818 67.2405882,6.87181818 64.3305882,6.87181818 C57.7905882,6.87181818 53.0805882,11.6718182 53.0805882,17.9118182 L53.0805882,17.9118182 Z M77.6105882,28.6818182 L91.4705882,28.6818182 L91.4705882,24.1818182 L82.8605882,24.1818182 L82.8605882,20.1318182 L89.4005882,20.1318182 L89.4005882,15.6318182 L82.8605882,15.6318182 L82.8605882,11.7318182 L91.0505882,11.7318182 L91.0505882,7.23181818 L77.6105882,7.23181818 L77.6105882,28.6818182 Z M99.6505882,28.6818182 L104.900588,28.6818182 L104.900588,11.7318182 L111.410588,11.7318182 L111.410588,7.23181818 L93.1405882,7.23181818 L93.1405882,11.7318182 L99.6505882,11.7318182 L99.6505882,28.6818182 Z M114.220588,28.6818182 L119.470588,28.6818182 L119.470588,20.7318182 L126.010588,20.7318182 L126.010588,16.2318182 L119.470588,16.2318182 L119.470588,11.7318182 L127.360588,11.7318182 L127.360588,7.23181818 L114.220588,7.23181818 L114.220588,28.6818182 Z M130.530588,28.6818182 L144.540588,28.6818182 L144.540588,24.1818182 L135.780588,24.1818182 L135.780588,7.23181818 L130.530588,7.23181818 L130.530588,28.6818182 Z M144.950588,28.6818182 L150.350588,28.6818182 L151.640588,24.1818182 L158.330588,24.1818182 L159.650588,28.6818182 L165.050588,28.6818182 L157.760588,7.23181818 L152.240588,7.23181818 L144.950588,28.6818182 Z M152.870588,19.9818182 L154.100588,15.8118182 C154.490588,14.4618182 154.970588,12.1218182 154.970588,12.1218182 L155.030588,12.1218182 C155.030588,12.1218182 155.510588,14.4618182 155.900588,15.8118182 L157.100588,19.9818182 L152.870588,19.9818182 Z M172.030588,28.6818182 L177.280588,28.6818182 L177.280588,11.7318182 L183.790588,11.7318182 L183.790588,7.23181818 L165.520588,7.23181818 L165.520588,11.7318182 L172.030588,11.7318182 L172.030588,28.6818182 Z" id="LOGO-Copy" sketch:type="MSShapeGroup"></path>
            </g>
        </g>
    </g>
</svg>