<?xml version="1.0" encoding="UTF-8" standalone="no"?>
<svg width="155px" height="50px" viewBox="0 0 155 50" version="1.1" xmlns="http://www.w3.org/2000/svg" xmlns:xlink="http://www.w3.org/1999/xlink" xmlns:sketch="http://www.bohemiancoding.com/sketch/ns">
    <!-- Generator: Sketch 3.3.2 (12043) - http://www.bohemiancoding.com/sketch -->
    <title>icon</title>
    <desc>Created with Sketch.</desc>
    <defs></defs>
    <g id="Mobile-UI" stroke="none" stroke-width="1" fill="none" fill-rule="evenodd" sketch:type="MSPage">
        <g id="icon" sketch:type="MSArtboardGroup" fill="#1D6BBF">
            <g id="key=logo-copy" sketch:type="MSLayerGroup" transform="translate(9.000000, 1.000000)">
                <g id="key-icon" transform="translate(68.328481, 24.395252) rotate(6.000000) translate(-68.328481, -24.395252) translate(51.828481, 2.395252)" sketch:type="MSShapeGroup">
                    <path d="M10.5442965,43.7618678 C16.3677507,43.7618678 21.0885931,39.0424915 21.0885931,33.2208458 C21.0885931,27.3992002 16.3677507,22.6798239 10.5442965,22.6798239 C4.72084237,22.6798239 1.0658141e-13,27.3992002 1.0658141e-13,33.2208458 C1.0658141e-13,39.0424915 4.72084237,43.7618678 10.5442965,43.7618678 Z M10.5442965,38.5491626 C13.4879588,38.5491626 15.8742686,36.1635939 15.8742686,33.2208458 C15.8742686,30.2780978 13.4879588,27.8925291 10.5442965,27.8925291 C7.60063428,27.8925291 5.21432453,30.2780978 5.21432453,33.2208458 C5.21432453,36.1635939 7.60063428,38.5491626 10.5442965,38.5491626 Z" id="Oval-10"></path>
                    <path d="M12.6061403,29.182068 L19.0625162,29.182068 L19.0625162,19.4052702 L27.1053159,19.4052702 L27.1053159,13.8712337 L19.0625162,13.8712337 L19.0625162,8.33719717 L28.7655269,8.33719717 L28.7655269,2.80316066 L12.6061403,2.80316066 L12.6061403,29.182068 Z" id="LOGO-Copy-6" transform="translate(20.685834, 15.992614) rotate(18.000000) translate(-20.685834, -15.992614) "></path>
                </g>
                <path d="M88.3687231,32.1304348 L101.322897,32.1304348 L101.322897,27.9695652 L93.2230709,27.9695652 L93.2230709,12.2969565 L88.3687231,12.2969565 L88.3687231,32.1304348 Z M101.517071,32.1304348 L106.510114,32.1304348 L107.702897,27.9695652 L113.888723,27.9695652 L115.109245,32.1304348 L120.102288,32.1304348 L113.36168,12.2969565 L108.25768,12.2969565 L101.517071,32.1304348 Z M108.840201,24.086087 L109.977506,20.2303478 C110.338114,18.982087 110.78194,16.8184348 110.78194,16.8184348 L110.837419,16.8184348 C110.837419,16.8184348 111.281245,18.982087 111.641854,20.2303478 L112.751419,24.086087 L108.840201,24.086087 Z M126.371332,32.1304348 L131.22568,32.1304348 L131.22568,16.4578261 L137.245071,16.4578261 L137.245071,12.2969565 L120.35194,12.2969565 L120.35194,16.4578261 L126.371332,16.4578261 L126.371332,32.1304348 Z" id="LOGO-Copy-7" sketch:type="MSShapeGroup"></path>
                <path d="M0.0263478261,22.3265346 C0.0263478261,28.8174911 4.68652174,32.617752 9.76278261,32.617752 C11.7045217,32.617752 13.7849565,31.9520129 14.9777391,30.8979259 L15.0332174,30.8979259 C15.0332174,30.8979259 15.0054783,31.3140129 15.0054783,31.7300998 L15.0054783,32.2848824 L19.0553913,32.2848824 L19.0553913,21.0782737 L11.9541739,21.0782737 L11.9541739,25.2114042 L14.7558261,25.2114042 L14.7558261,26.7370564 C13.6185217,27.6247085 12.176087,28.1794911 10.7336522,28.1794911 C7.6546087,28.1794911 5.04713043,25.9326216 5.04713043,22.1600998 C5.04713043,19.219752 6.73921739,16.5567955 10.900087,16.5567955 C12.5921739,16.5567955 14.5893913,17.3612303 15.7266957,18.3875781 L18.0567826,14.753752 C15.9486087,12.8952303 13.1192174,12.1185346 10.4285217,12.1185346 C4.3813913,12.1185346 0.0263478261,16.5567955 0.0263478261,22.3265346 L0.0263478261,22.3265346 Z M22.5227826,32.2848824 L35.3382609,32.2848824 L35.3382609,28.1240129 L27.3771304,28.1240129 L27.3771304,24.3792303 L33.4242609,24.3792303 L33.4242609,20.2183607 L27.3771304,20.2183607 L27.3771304,16.6122737 L34.949913,16.6122737 L34.949913,12.4514042 L22.5227826,12.4514042 L22.5227826,32.2848824 Z M42.7168696,32.2848824 L47.5712174,32.2848824 L47.5712174,16.6122737 L53.5906087,16.6122737 L53.5906087,12.4514042 L36.6974783,12.4514042 L36.6974783,16.6122737 L42.7168696,16.6122737 L42.7168696,32.2848824 Z" id="LOGO-Copy-8" sketch:type="MSShapeGroup"></path>
            </g>
        </g>
    </g>
</svg>